<svg width="729" height="777" fill="none" xmlns="http://www.w3.org/2000/svg"><g opacity=".05" clip-path="url(#clip0)"><path d="M471.872 646.696h56.998v133.3h-56.998v-133.3z" fill="#333"/><path d="M502.962 639.971h25.908v7.588h-25.908v-7.588zm10.881-4.311h15.027v4.311h-15.027v-4.311z" fill="#333"/><path opacity=".06" d="M495.707 656.008h9.327v6.898h-9.327v-6.898z" fill="#fff"/><path opacity=".12" d="M495.707 673.08h9.327v6.898h-9.327v-6.898z" fill="#fff"/><path opacity=".19" d="M495.707 707.224h9.327v6.898h-9.327v-6.898z" fill="#fff"/><path opacity=".14" d="M495.707 741.368h9.327v6.898h-9.327v-6.898z" fill="#fff"/><path opacity=".1" d="M495.707 758.44h9.327v6.898h-9.327v-6.898z" fill="#fff"/><path d="M614.884 661.181h78.07v71.392h-78.07v-71.392z" fill="#333"/><path d="M627.147 654.801h53.371v30.695h-53.371v-30.695zm-17.962 51.388h78.069v71.392h-78.069v-71.392z" fill="#333"/><path d="M621.62 699.808h53.371v30.695H621.62v-30.695zm-116.413-3.104h78.069v82.257h-78.069v-82.257z" fill="#333"/><path d="M517.47 689.462h53.371v35.523H517.47v-35.523zM243.881 721.71h78.07v79.496h-78.07V721.71z" fill="#333"/><path d="M256.144 714.639h53.371v34.317h-53.371v-34.317zm157.003-157.097h87.224v221.247h-87.224V557.542z" fill="#333"/><path opacity=".46" d="M474.981 567.544h21.072v3.967h-21.072v-3.967z" fill="#E6E6E6"/><path opacity=".34" d="M446.136 567.544h21.072v3.967h-21.072v-3.967z" fill="#E6E6E6"/><path opacity=".52" d="M417.465 567.544h21.072v3.967h-21.072v-3.967z" fill="#E6E6E6"/><path opacity=".54" d="M474.981 576.684h21.072v3.966h-21.072v-3.966z" fill="#E6E6E6"/><path opacity=".3" d="M446.136 576.684h21.072v3.966h-21.072v-3.966z" fill="#E6E6E6"/><path opacity=".06" d="M417.465 576.684h21.072v3.966h-21.072v-3.966z" fill="#E6E6E6"/><path opacity=".15" d="M474.981 585.823h21.072v3.967h-21.072v-3.967z" fill="#E6E6E6"/><path opacity=".42" d="M446.136 585.823h21.072v3.967h-21.072v-3.967z" fill="#E6E6E6"/><path opacity=".48" d="M417.465 585.823h21.072v3.967h-21.072v-3.967z" fill="#E6E6E6"/><path opacity=".18" d="M474.981 594.963h21.072v3.966h-21.072v-3.966z" fill="#E6E6E6"/><path opacity=".28" d="M417.465 594.963h21.072v3.966h-21.072v-3.966z" fill="#E6E6E6"/><path opacity=".29" d="M474.981 604.102h21.072v3.967h-21.072v-3.967z" fill="#E6E6E6"/><path opacity=".28" d="M446.136 604.102h21.072v3.967h-21.072v-3.967z" fill="#E6E6E6"/><path opacity=".56" d="M417.465 604.102h21.072v3.967h-21.072v-3.967z" fill="#E6E6E6"/><path opacity=".41" d="M474.981 613.242h21.072v3.966h-21.072v-3.966z" fill="#E6E6E6"/><path opacity=".16" d="M446.136 613.242h21.072v3.966h-21.072v-3.966z" fill="#E6E6E6"/><path opacity=".4" d="M417.465 613.242h21.072v3.966h-21.072v-3.966z" fill="#E6E6E6"/><path opacity=".1" d="M474.981 622.382h21.072v3.966h-21.072v-3.966z" fill="#E6E6E6"/><path opacity=".17" d="M446.136 622.382h21.072v3.966h-21.072v-3.966z" fill="#E6E6E6"/><path opacity=".08" d="M417.465 622.382h21.072v3.966h-21.072v-3.966z" fill="#E6E6E6"/><path opacity=".49" d="M474.981 631.521h21.072v3.966h-21.072v-3.966z" fill="#E6E6E6"/><path opacity=".58" d="M446.136 631.521h21.072v3.966h-21.072v-3.966zm-28.671 0h21.072v3.966h-21.072v-3.966z" fill="#E6E6E6"/><path opacity=".26" d="M474.981 640.661h21.072v3.966h-21.072v-3.966z" fill="#E6E6E6"/><path opacity=".37" d="M446.136 640.661h21.072v3.966h-21.072v-3.966z" fill="#E6E6E6"/><path opacity=".34" d="M417.465 640.661h21.072v3.966h-21.072v-3.966z" fill="#E6E6E6"/><path opacity=".55" d="M474.981 649.8h21.072v3.966h-21.072V649.8z" fill="#E6E6E6"/><path opacity=".12" d="M446.136 649.8h21.072v3.966h-21.072V649.8z" fill="#E6E6E6"/><path opacity=".6" d="M417.465 649.8h21.072v3.966h-21.072V649.8z" fill="#E6E6E6"/><path opacity=".02" d="M474.981 658.94h21.072v3.966h-21.072v-3.966z" fill="#E6E6E6"/><path opacity=".28" d="M446.136 658.94h21.072v3.966h-21.072v-3.966z" fill="#E6E6E6"/><path opacity=".21" d="M417.465 658.94h21.072v3.966h-21.072v-3.966z" fill="#E6E6E6"/><path opacity=".57" d="M474.981 668.079h21.072v3.967h-21.072v-3.967z" fill="#E6E6E6"/><path opacity=".38" d="M446.136 668.079h21.072v3.967h-21.072v-3.967z" fill="#E6E6E6"/><path opacity=".25" d="M417.465 668.079h21.072v3.967h-21.072v-3.967z" fill="#E6E6E6"/><path opacity=".15" d="M474.981 677.219h21.072v3.966h-21.072v-3.966z" fill="#E6E6E6"/><path opacity=".47" d="M446.136 677.219h21.072v3.966h-21.072v-3.966z" fill="#E6E6E6"/><path opacity=".3" d="M417.465 677.219h21.072v3.966h-21.072v-3.966z" fill="#E6E6E6"/><path opacity=".4" d="M474.981 686.358h21.072v3.967h-21.072v-3.967z" fill="#E6E6E6"/><path opacity=".39" d="M446.136 686.358h21.072v3.967h-21.072v-3.967z" fill="#E6E6E6"/><path opacity=".24" d="M417.465 686.358h21.072v3.967h-21.072v-3.967z" fill="#E6E6E6"/><path opacity=".46" d="M474.981 695.498h21.072v3.966h-21.072v-3.966z" fill="#E6E6E6"/><path opacity=".22" d="M446.136 695.498h21.072v3.966h-21.072v-3.966z" fill="#E6E6E6"/><path opacity=".11" d="M417.465 695.498h21.072v3.966h-21.072v-3.966zm28.671 9.14h21.072v3.966h-21.072v-3.966z" fill="#E6E6E6"/><path opacity=".02" d="M417.465 704.638h21.072v3.966h-21.072v-3.966z" fill="#E6E6E6"/><path opacity=".27" d="M474.981 713.777h21.072v3.967h-21.072v-3.967z" fill="#E6E6E6"/><path opacity=".21" d="M446.136 713.777h21.072v3.967h-21.072v-3.967z" fill="#E6E6E6"/><path opacity=".49" d="M417.465 713.777h21.072v3.967h-21.072v-3.967z" fill="#E6E6E6"/><path opacity=".6" d="M474.981 722.917h21.072v3.966h-21.072v-3.966z" fill="#E6E6E6"/><path opacity=".31" d="M446.136 722.917h21.072v3.966h-21.072v-3.966z" fill="#E6E6E6"/><path opacity=".22" d="M417.465 722.917h21.072v3.966h-21.072v-3.966z" fill="#E6E6E6"/><path opacity=".54" d="M474.981 732.056h21.072v3.967h-21.072v-3.967z" fill="#E6E6E6"/><path opacity=".6" d="M446.136 732.056h21.072v3.967h-21.072v-3.967z" fill="#E6E6E6"/><path opacity=".08" d="M417.465 732.056h21.072v3.967h-21.072v-3.967z" fill="#E6E6E6"/><path opacity=".55" d="M446.136 741.196h21.072v3.966h-21.072v-3.966z" fill="#E6E6E6"/><path d="M417.465 741.196h21.072v3.966h-21.072v-3.966z" fill="#E6E6E6"/><path opacity=".6" d="M473.599 567.544h1.382v177.618h-1.382V567.544zm-35.062 0h1.382v177.618h-1.382V567.544z" fill="#E6E6E6"/><path d="M369.621 557.542h43.526v221.247h-43.526V557.542z" fill="#4D4D4D"/><path opacity=".69" d="M376.012 567.544h32.817v3.967h-32.817v-3.967z" fill="#E6E6E6"/><path opacity=".79" d="M376.012 576.684h32.817v3.966h-32.817v-3.966z" fill="#E6E6E6"/><path opacity=".19" d="M376.012 585.823h32.817v3.967h-32.817v-3.967z" fill="#E6E6E6"/><path opacity=".88" d="M376.012 594.963h32.817v3.966h-32.817v-3.966z" fill="#E6E6E6"/><path opacity=".5" d="M376.012 604.102h32.817v3.967h-32.817v-3.967z" fill="#E6E6E6"/><path opacity=".25" d="M376.012 613.242h32.817v3.966h-32.817v-3.966z" fill="#E6E6E6"/><path opacity=".91" d="M376.012 622.382h32.817v3.966h-32.817v-3.966z" fill="#E6E6E6"/><path opacity=".02" d="M376.012 631.521h32.817v3.966h-32.817v-3.966z" fill="#E6E6E6"/><path opacity=".53" d="M376.012 640.661h32.817v3.966h-32.817v-3.966z" fill="#E6E6E6"/><path opacity=".65" d="M376.012 649.8h32.817v3.966h-32.817V649.8z" fill="#E6E6E6"/><path d="M376.012 658.94h32.817v3.966h-32.817v-3.966z" fill="#E6E6E6"/><path opacity=".8" d="M376.012 668.079h32.817v3.967h-32.817v-3.967z" fill="#E6E6E6"/><path opacity=".82" d="M376.012 677.219h32.817v3.966h-32.817v-3.966z" fill="#E6E6E6"/><path opacity=".75" d="M376.012 686.358h32.817v3.967h-32.817v-3.967z" fill="#E6E6E6"/><path opacity=".31" d="M376.012 695.498h32.817v3.966h-32.817v-3.966z" fill="#E6E6E6"/><path opacity=".22" d="M376.012 704.638h32.817v3.966h-32.817v-3.966z" fill="#E6E6E6"/><path opacity=".43" d="M376.012 713.777h32.817v3.967h-32.817v-3.967z" fill="#E6E6E6"/><path opacity=".68" d="M376.012 722.917h32.817v3.966h-32.817v-3.966z" fill="#E6E6E6"/><path opacity=".38" d="M376.012 732.056h32.817v3.967h-32.817v-3.967z" fill="#E6E6E6"/><path opacity=".84" d="M376.012 741.196h32.817v3.966h-32.817v-3.966z" fill="#E6E6E6"/><path d="M484.999 545.816v11.726h-56.48v-11.726h56.48zm-12.609 7.933h5.872v-3.967h-5.872v3.967zm-9.154 0h5.7v-3.967h-5.7v3.967zm-9.327 0h5.7v-3.967h-5.7v3.967zm-9.327 0h5.872v-3.967h-5.872v3.967zm-9.327 0h5.873v-3.967h-5.873v3.967zm-17.099-3.967h1.554v3.967h-1.554v-3.967z" fill="#333"/><path d="M428.519 545.816v11.726H401.92v-11.726h26.599zm-10.363 7.933h5.7v-3.967h-5.7v3.967zm-12.263 0h5.699v-3.967h-5.699v3.967z" fill="#4D4D4D"/><path d="M406.065 549.782h1.555v3.967h-1.555v-3.967zm-4.49 244.008h117.449l-117.449-86.567v86.567z" fill="#333"/><path d="M576.713 510.637h9.5v36.041h-9.5v-36.041z" fill="#4D4D4D"/><path d="M586.04 510.637h9.672v36.041h-9.672v-36.041z" fill="#333"/><path d="M566.868 510.637h9.672v36.041h-9.672v-36.041zm-27.981 60.701h26.945v205.554h-26.945V571.338z" fill="#666"/><path d="M597.439 571.338h23.49v205.554h-23.49V571.338z" fill="#333"/><path d="M565.832 571.338h31.78v205.554h-31.78V571.338z" fill="#4D4D4D"/><path opacity=".6" d="M614.193 577.373h3.455v196.759h-3.455V577.373zm-6.736 0h3.455v196.759h-3.455V577.373zm-6.736 0h3.454v196.759h-3.454V577.373z" fill="#E6E6E6"/><path d="M560.477 577.373h3.455v196.759h-3.455V577.373zm-6.736 0h3.455v196.759h-3.455V577.373zm-13.126 0h3.454v196.759h-3.454V577.373zm6.39 0h3.455v196.759h-3.455V577.373z" fill="#E6E6E6"/><path opacity=".8" d="M593.64 774.132h-23.836V577.373h23.836v196.759zm-3.8-193.31h-16.236v189.862h16.236V580.822z" fill="#E6E6E6"/><path opacity=".8" d="M586.731 767.407H576.54V583.926h10.191v183.481zm-3.455-179.17h-3.281v174.859h3.281V588.237z" fill="#E6E6E6"/><path opacity=".8" d="M581.376 588.237h.691v174.859h-.691V588.237z" fill="#E6E6E6"/><path d="M569.459 535.297h23.835v36.041h-23.835v-36.041z" fill="#4D4D4D"/><path d="M569.459 535.297h23.835v36.041h-23.835v-36.041z" fill="#4D4D4D"/><path d="M545.623 535.297h23.836v36.041h-23.836v-36.041z" fill="#666"/><path d="M593.294 535.297h23.836v36.041h-23.836v-36.041z" fill="#333"/><path d="M567.041 510.637h28.671l-9.499 6.553h-9.673l-9.499-6.553z" fill="gray"/><path d="M54.58 497.359h13.817v40.525H54.58v-40.525z" fill="#4D4D4D"/><path d="M68.57 497.359h13.818v40.525H68.57v-40.525z" fill="#333"/><path d="M40.762 497.359H54.58v40.525H40.762v-40.525zM0 565.82h39.035v231.593H0V565.82z" fill="#666"/><path d="M84.978 565.82h33.854v231.593H84.979V565.82z" fill="#333"/><path d="M39.035 565.82h45.943v231.593H39.035V565.82z" fill="#4D4D4D"/><path opacity=".4" d="M109.159 572.717h5.009v221.591h-5.009V572.717zm-9.845 0h5.009v221.591h-5.009V572.717zm-9.845 0h5.009v221.591h-5.009V572.717z" fill="#E6E6E6"/><path d="M31.262 572.717h5.01v221.591h-5.01V572.717zm-9.845 0h5.01v221.591h-5.01V572.717zm-18.827 0H7.6v221.591H2.59V572.717zm9.155 0h5.009v221.591h-5.01V572.717zm67.361 221.591H44.562V572.717h34.544v221.591zm-5.354-217.797h-23.49v214.003h23.49V576.511z" fill="#E6E6E6"/><path d="M69.434 786.893H54.58v-206.76h14.854v206.76zm-5.182-201.932h-4.664v197.104h4.664V584.961z" fill="#E6E6E6"/><path d="M61.488 584.961h.864v197.104h-.864V584.961z" fill="#E6E6E6"/><path d="M44.216 525.295H78.76v40.525H44.216v-40.525z" fill="#4D4D4D"/><path d="M44.216 525.295H78.76v40.525H44.216v-40.525z" fill="#4D4D4D"/><path d="M9.672 525.295h34.544v40.525H9.672v-40.525z" fill="#666"/><path d="M78.588 525.295h34.544v40.525H78.588v-40.525z" fill="#333"/><path d="M40.59 497.359h41.798l-13.99 7.415H54.58l-13.99-7.415z" fill="gray"/><path d="M154.239 597.894h94.478v31.384h-94.478v-31.384z" fill="#E6E6E6"/><path d="M211.582 597.894h37.135v31.384h-37.135v-31.384z" fill="#B3B3B3"/><path d="M211.582 629.451h73.407v152.441h-73.407V629.451z" fill="#333"/><path d="M96.896 629.451h114.686v152.441H96.896V629.451z" fill="#4D4D4D"/><path d="M220.564 613.931h56.479v15.52h-56.479v-15.52z" fill="#333"/><path d="M113.995 613.931h80.661v15.52h-80.661v-15.52z" fill="#4D4D4D"/><path d="M179.284 585.995h32.298v11.898h-32.298v-11.898z" fill="#E6E6E6"/><path d="M195.519 573.924h16.063v11.899h-16.063v-11.899z" fill="#4D4D4D"/><path d="M211.755 573.924h16.063v11.899h-16.063v-11.899z" fill="#333"/><path d="M211.582 585.995h24.699v11.898h-24.699v-11.898z" fill="#B3B3B3"/><path d="M212.619 573.924l-1.037-27.591-.863 27.591h1.9z" fill="#333"/><path opacity=".12" d="M261.844 635.659h6.045v6.035h-6.045v-6.035z" fill="#fff"/><path opacity=".25" d="M253.553 635.659h6.046v6.035h-6.046v-6.035z" fill="#fff"/><path opacity=".36" d="M245.263 635.659h6.045v6.035h-6.045v-6.035z" fill="#fff"/><path opacity=".12" d="M236.972 635.659h6.046v6.035h-6.046v-6.035z" fill="#fff"/><path opacity=".14" d="M228.682 635.659h6.045v6.035h-6.045v-6.035z" fill="#fff"/><path opacity=".28" d="M261.844 643.591h6.045v6.036h-6.045v-6.036z" fill="#fff"/><path opacity=".4" d="M253.553 643.591h6.046v6.036h-6.046v-6.036z" fill="#fff"/><path opacity=".16" d="M245.263 643.591h6.045v6.036h-6.045v-6.036z" fill="#fff"/><path opacity=".17" d="M228.682 643.591h6.045v6.036h-6.045v-6.036z" fill="#fff"/><path opacity=".27" d="M261.844 651.524h6.045v6.035h-6.045v-6.035z" fill="#fff"/><path opacity=".45" d="M253.553 651.524h6.046v6.035h-6.046v-6.035zm-8.29 0h6.045v6.035h-6.045v-6.035z" fill="#fff"/><path opacity=".48" d="M236.972 651.524h6.046v6.035h-6.046v-6.035z" fill="#fff"/><path opacity=".25" d="M228.682 651.524h6.045v6.035h-6.045v-6.035z" fill="#fff"/><path opacity=".28" d="M261.844 659.456h6.045v6.036h-6.045v-6.036z" fill="#fff"/><path opacity=".13" d="M253.553 659.456h6.046v6.036h-6.046v-6.036z" fill="#fff"/><path opacity=".07" d="M245.263 659.456h6.045v6.036h-6.045v-6.036z" fill="#fff"/><path opacity=".39" d="M236.972 659.456h6.046v6.036h-6.046v-6.036z" fill="#fff"/><path opacity=".47" d="M228.682 659.456h6.045v6.036h-6.045v-6.036z" fill="#fff"/><path opacity=".28" d="M261.844 667.388h6.045v6.036h-6.045v-6.036z" fill="#fff"/><path opacity=".2" d="M253.553 667.388h6.046v6.036h-6.046v-6.036z" fill="#fff"/><path opacity=".04" d="M245.263 667.388h6.045v6.036h-6.045v-6.036z" fill="#fff"/><path opacity=".43" d="M236.972 667.388h6.046v6.036h-6.046v-6.036z" fill="#fff"/><path opacity=".48" d="M228.682 667.388h6.045v6.036h-6.045v-6.036z" fill="#fff"/><path opacity=".28" d="M261.844 675.321h6.045v6.036h-6.045v-6.036z" fill="#fff"/><path opacity=".19" d="M253.553 675.321h6.046v6.036h-6.046v-6.036z" fill="#fff"/><path opacity=".01" d="M245.263 675.321h6.045v6.036h-6.045v-6.036z" fill="#fff"/><path opacity=".27" d="M236.972 675.321h6.046v6.036h-6.046v-6.036z" fill="#fff"/><path opacity=".24" d="M228.682 675.321h6.045v6.036h-6.045v-6.036z" fill="#fff"/><path opacity=".07" d="M261.844 683.426h6.045v6.035h-6.045v-6.035z" fill="#fff"/><path opacity=".25" d="M253.553 683.426h6.046v6.035h-6.046v-6.035z" fill="#fff"/><path opacity=".26" d="M245.263 683.426h6.045v6.035h-6.045v-6.035z" fill="#fff"/><path opacity=".39" d="M236.972 683.426h6.046v6.035h-6.046v-6.035z" fill="#fff"/><path opacity=".22" d="M228.682 683.426h6.045v6.035h-6.045v-6.035z" fill="#fff"/><path opacity=".15" d="M261.844 691.358h6.045v6.036h-6.045v-6.036z" fill="#fff"/><path opacity=".23" d="M253.553 691.358h6.046v6.036h-6.046v-6.036z" fill="#fff"/><path opacity=".05" d="M245.263 691.358h6.045v6.036h-6.045v-6.036z" fill="#fff"/><path opacity=".2" d="M236.972 691.358h6.046v6.036h-6.046v-6.036z" fill="#fff"/><path opacity=".31" d="M228.682 691.358h6.045v6.036h-6.045v-6.036z" fill="#fff"/><path opacity=".15" d="M261.844 699.291h6.045v6.035h-6.045v-6.035z" fill="#fff"/><path opacity=".33" d="M253.553 699.291h6.046v6.035h-6.046v-6.035z" fill="#fff"/><path opacity=".46" d="M245.263 699.291h6.045v6.035h-6.045v-6.035z" fill="#fff"/><path opacity=".25" d="M236.972 699.291h6.046v6.035h-6.046v-6.035z" fill="#fff"/><path opacity=".43" d="M228.682 699.291h6.045v6.035h-6.045v-6.035z" fill="#fff"/><path opacity=".4" d="M261.844 707.223h6.045v6.036h-6.045v-6.036z" fill="#fff"/><path opacity=".39" d="M253.553 707.223h6.046v6.036h-6.046v-6.036z" fill="#fff"/><path opacity=".01" d="M245.263 707.223h6.045v6.036h-6.045v-6.036z" fill="#fff"/><path opacity=".12" d="M236.972 707.223h6.046v6.036h-6.046v-6.036z" fill="#fff"/><path opacity=".07" d="M228.682 707.223h6.045v6.036h-6.045v-6.036zm33.162 7.933h6.045v6.035h-6.045v-6.035z" fill="#fff"/><path opacity=".02" d="M253.553 715.156h6.046v6.035h-6.046v-6.035z" fill="#fff"/><path opacity=".12" d="M245.263 715.156h6.045v6.035h-6.045v-6.035z" fill="#fff"/><path opacity=".23" d="M236.972 715.156h6.046v6.035h-6.046v-6.035z" fill="#fff"/><path opacity=".26" d="M228.682 715.156h6.045v6.035h-6.045v-6.035z" fill="#fff"/><path opacity=".27" d="M261.844 723.088h6.045v6.036h-6.045v-6.036z" fill="#fff"/><path opacity=".38" d="M253.553 723.088h6.046v6.036h-6.046v-6.036z" fill="#fff"/><path opacity=".05" d="M245.263 723.088h6.045v6.036h-6.045v-6.036z" fill="#fff"/><path opacity=".45" d="M236.972 723.088h6.046v6.036h-6.046v-6.036z" fill="#fff"/><path opacity=".15" d="M228.682 723.088h6.045v6.036h-6.045v-6.036z" fill="#fff"/><path opacity=".06" d="M261.844 731.021h6.045v6.035h-6.045v-6.035z" fill="#fff"/><path opacity=".47" d="M253.553 731.021h6.046v6.035h-6.046v-6.035z" fill="#fff"/><path opacity=".15" d="M245.263 731.021h6.045v6.035h-6.045v-6.035z" fill="#fff"/><path opacity=".44" d="M236.972 731.021h6.046v6.035h-6.046v-6.035z" fill="#fff"/><path opacity=".14" d="M228.682 731.021h6.045v6.035h-6.045v-6.035z" fill="#fff"/><path opacity=".15" d="M261.844 738.953h6.045v6.036h-6.045v-6.036z" fill="#fff"/><path opacity=".43" d="M253.553 738.953h6.046v6.036h-6.046v-6.036z" fill="#fff"/><path opacity=".07" d="M245.263 738.953h6.045v6.036h-6.045v-6.036z" fill="#fff"/><path opacity=".47" d="M236.972 738.953h6.046v6.036h-6.046v-6.036z" fill="#fff"/><path opacity=".11" d="M228.682 738.953h6.045v6.036h-6.045v-6.036z" fill="#fff"/><path opacity=".07" d="M261.844 746.885h6.045v6.036h-6.045v-6.036z" fill="#fff"/><path opacity=".34" d="M253.553 746.885h6.046v6.036h-6.046v-6.036z" fill="#fff"/><path opacity=".5" d="M245.263 746.885h6.045v6.036h-6.045v-6.036z" fill="#fff"/><path opacity=".36" d="M236.972 746.885h6.046v6.036h-6.046v-6.036z" fill="#fff"/><path opacity=".34" d="M228.682 746.885h6.045v6.036h-6.045v-6.036z" fill="#fff"/><path opacity=".47" d="M261.844 754.818h6.045v6.036h-6.045v-6.036z" fill="#fff"/><path opacity=".41" d="M253.553 754.818h6.046v6.036h-6.046v-6.036z" fill="#fff"/><path opacity=".3" d="M245.263 754.818h6.045v6.036h-6.045v-6.036z" fill="#fff"/><path opacity=".33" d="M236.972 754.818h6.046v6.036h-6.046v-6.036z" fill="#fff"/><path opacity=".12" d="M228.682 754.818h6.045v6.036h-6.045v-6.036z" fill="#fff"/><path opacity=".24" d="M261.844 762.75h6.045v6.036h-6.045v-6.036z" fill="#fff"/><path opacity=".29" d="M253.553 762.75h6.046v6.036h-6.046v-6.036z" fill="#fff"/><path opacity=".27" d="M236.972 762.75h6.046v6.036h-6.046v-6.036z" fill="#fff"/><path opacity=".04" d="M228.682 762.75h6.045v6.036h-6.045v-6.036z" fill="#fff"/><path opacity=".11" d="M261.844 770.683h6.045v6.035h-6.045v-6.035z" fill="#fff"/><path opacity=".05" d="M253.553 770.683h6.046v6.035h-6.046v-6.035z" fill="#fff"/><path opacity=".04" d="M245.263 770.683h6.045v6.035h-6.045v-6.035z" fill="#fff"/><path opacity=".02" d="M236.972 770.683h6.046v6.035h-6.046v-6.035z" fill="#fff"/><path opacity=".3" d="M191.547 635.659h6.045v6.035h-6.045v-6.035z" fill="#fff"/><path opacity=".72" d="M183.602 635.659h6.045v6.035h-6.045v-6.035z" fill="#fff"/><path opacity=".7" d="M175.484 635.659h6.045v6.035h-6.045v-6.035z" fill="#fff"/><path opacity=".52" d="M167.366 635.659h6.045v6.035h-6.045v-6.035z" fill="#fff"/><path opacity=".2" d="M159.248 635.659h6.046v6.035h-6.046v-6.035z" fill="#fff"/><path opacity=".32" d="M151.303 635.659h6.045v6.035h-6.045v-6.035z" fill="#fff"/><path opacity=".13" d="M143.185 635.659h6.045v6.035h-6.045v-6.035z" fill="#fff"/><path opacity=".38" d="M135.067 635.659h6.046v6.035h-6.046v-6.035z" fill="#fff"/><path opacity=".61" d="M127.122 635.659h6.045v6.035h-6.045v-6.035z" fill="#fff"/><path d="M119.004 635.659h6.046v6.035h-6.046v-6.035z" fill="#fff"/><path opacity=".91" d="M110.887 635.659h6.045v6.035h-6.045v-6.035z" fill="#fff"/><path opacity=".66" d="M191.547 643.591h6.045v6.036h-6.045v-6.036z" fill="#fff"/><path opacity=".31" d="M183.602 643.591h6.045v6.036h-6.045v-6.036z" fill="#fff"/><path opacity=".95" d="M175.484 643.591h6.045v6.036h-6.045v-6.036z" fill="#fff"/><path opacity=".7" d="M167.366 643.591h6.045v6.036h-6.045v-6.036z" fill="#fff"/><path opacity=".12" d="M159.248 643.591h6.046v6.036h-6.046v-6.036z" fill="#fff"/><path opacity=".24" d="M151.303 643.591h6.045v6.036h-6.045v-6.036z" fill="#fff"/><path opacity=".66" d="M143.185 643.591h6.045v6.036h-6.045v-6.036z" fill="#fff"/><path opacity=".71" d="M135.067 643.591h6.046v6.036h-6.046v-6.036z" fill="#fff"/><path opacity=".42" d="M127.122 643.591h6.045v6.036h-6.045v-6.036z" fill="#fff"/><path opacity=".09" d="M119.004 643.591h6.046v6.036h-6.046v-6.036z" fill="#fff"/><path opacity=".32" d="M110.887 643.591h6.045v6.036h-6.045v-6.036z" fill="#fff"/><path opacity=".65" d="M191.547 651.524h6.045v6.035h-6.045v-6.035z" fill="#fff"/><path d="M183.602 651.524h6.045v6.035h-6.045v-6.035zm-8.118 0h6.045v6.035h-6.045v-6.035z" fill="#fff"/><path opacity=".71" d="M167.366 651.524h6.045v6.035h-6.045v-6.035z" fill="#fff"/><path opacity=".2" d="M159.248 651.524h6.046v6.035h-6.046v-6.035z" fill="#fff"/><path opacity=".19" d="M151.303 651.524h6.045v6.035h-6.045v-6.035z" fill="#fff"/><path opacity=".62" d="M143.185 651.524h6.045v6.035h-6.045v-6.035z" fill="#fff"/><path opacity=".93" d="M135.067 651.524h6.046v6.035h-6.046v-6.035z" fill="#fff"/><path opacity=".56" d="M127.122 651.524h6.045v6.035h-6.045v-6.035z" fill="#fff"/><path opacity=".57" d="M119.004 651.524h6.046v6.035h-6.046v-6.035z" fill="#fff"/><path opacity=".52" d="M110.887 651.524h6.045v6.035h-6.045v-6.035z" fill="#fff"/><path opacity=".74" d="M191.547 659.456h6.045v6.036h-6.045v-6.036z" fill="#fff"/><path opacity=".56" d="M183.602 659.456h6.045v6.036h-6.045v-6.036z" fill="#fff"/><path opacity=".78" d="M175.484 659.456h6.045v6.036h-6.045v-6.036z" fill="#fff"/><path opacity=".41" d="M167.366 659.456h6.045v6.036h-6.045v-6.036z" fill="#fff"/><path opacity=".14" d="M159.248 659.456h6.046v6.036h-6.046v-6.036z" fill="#fff"/><path opacity=".28" d="M151.303 659.456h6.045v6.036h-6.045v-6.036z" fill="#fff"/><path opacity=".36" d="M143.185 659.456h6.045v6.036h-6.045v-6.036z" fill="#fff"/><path opacity=".14" d="M135.067 659.456h6.046v6.036h-6.046v-6.036z" fill="#fff"/><path opacity=".5" d="M127.122 659.456h6.045v6.036h-6.045v-6.036z" fill="#fff"/><path opacity=".98" d="M119.004 659.456h6.046v6.036h-6.046v-6.036z" fill="#fff"/><path opacity=".59" d="M110.887 659.456h6.045v6.036h-6.045v-6.036z" fill="#fff"/><path opacity=".07" d="M191.547 667.388h6.045v6.036h-6.045v-6.036z" fill="#fff"/><path opacity=".1" d="M183.602 667.388h6.045v6.036h-6.045v-6.036z" fill="#fff"/><path opacity=".88" d="M175.484 667.388h6.045v6.036h-6.045v-6.036z" fill="#fff"/><path opacity=".68" d="M167.366 667.388h6.045v6.036h-6.045v-6.036z" fill="#fff"/><path opacity=".81" d="M159.248 667.388h6.046v6.036h-6.046v-6.036z" fill="#fff"/><path opacity=".62" d="M151.303 667.388h6.045v6.036h-6.045v-6.036z" fill="#fff"/><path opacity=".97" d="M143.185 667.388h6.045v6.036h-6.045v-6.036z" fill="#fff"/><path opacity=".81" d="M135.067 667.388h6.046v6.036h-6.046v-6.036z" fill="#fff"/><path opacity=".79" d="M127.122 667.388h6.045v6.036h-6.045v-6.036z" fill="#fff"/><path opacity=".03" d="M119.004 667.388h6.046v6.036h-6.046v-6.036z" fill="#fff"/><path opacity=".95" d="M110.887 667.388h6.045v6.036h-6.045v-6.036z" fill="#fff"/><path opacity=".62" d="M191.547 675.321h6.045v6.036h-6.045v-6.036z" fill="#fff"/><path opacity=".22" d="M183.602 675.321h6.045v6.036h-6.045v-6.036z" fill="#fff"/><path opacity=".42" d="M175.484 675.321h6.045v6.036h-6.045v-6.036z" fill="#fff"/><path opacity=".56" d="M167.366 675.321h6.045v6.036h-6.045v-6.036z" fill="#fff"/><path opacity=".03" d="M159.248 675.321h6.046v6.036h-6.046v-6.036z" fill="#fff"/><path opacity=".64" d="M151.303 675.321h6.045v6.036h-6.045v-6.036z" fill="#fff"/><path opacity=".82" d="M143.185 675.321h6.045v6.036h-6.045v-6.036z" fill="#fff"/><path opacity=".52" d="M135.067 675.321h6.046v6.036h-6.046v-6.036z" fill="#fff"/><path opacity=".46" d="M127.122 675.321h6.045v6.036h-6.045v-6.036z" fill="#fff"/><path opacity=".27" d="M119.004 675.321h6.046v6.036h-6.046v-6.036z" fill="#fff"/><path opacity=".46" d="M110.887 675.321h6.045v6.036h-6.045v-6.036z" fill="#fff"/><path opacity=".66" d="M191.547 683.426h6.045v6.035h-6.045v-6.035z" fill="#fff"/><path opacity=".7" d="M183.602 683.426h6.045v6.035h-6.045v-6.035z" fill="#fff"/><path opacity=".94" d="M175.484 683.426h6.045v6.035h-6.045v-6.035z" fill="#fff"/><path opacity=".5" d="M167.366 683.426h6.045v6.035h-6.045v-6.035z" fill="#fff"/><path opacity=".12" d="M159.248 683.426h6.046v6.035h-6.046v-6.035z" fill="#fff"/><path opacity=".36" d="M151.303 683.426h6.045v6.035h-6.045v-6.035z" fill="#fff"/><path opacity=".51" d="M143.185 683.426h6.045v6.035h-6.045v-6.035z" fill="#fff"/><path opacity=".37" d="M135.067 683.426h6.046v6.035h-6.046v-6.035z" fill="#fff"/><path opacity=".66" d="M127.122 683.426h6.045v6.035h-6.045v-6.035z" fill="#fff"/><path opacity=".42" d="M119.004 683.426h6.046v6.035h-6.046v-6.035z" fill="#fff"/><path opacity=".5" d="M110.887 683.426h6.045v6.035h-6.045v-6.035z" fill="#fff"/><path opacity=".52" d="M191.547 691.358h6.045v6.036h-6.045v-6.036z" fill="#fff"/><path opacity=".61" d="M183.602 691.358h6.045v6.036h-6.045v-6.036z" fill="#fff"/><path opacity=".84" d="M175.484 691.358h6.045v6.036h-6.045v-6.036z" fill="#fff"/><path opacity=".89" d="M167.366 691.358h6.045v6.036h-6.045v-6.036z" fill="#fff"/><path opacity=".33" d="M159.248 691.358h6.046v6.036h-6.046v-6.036z" fill="#fff"/><path opacity=".25" d="M151.303 691.358h6.045v6.036h-6.045v-6.036z" fill="#fff"/><path opacity=".95" d="M143.185 691.358h6.045v6.036h-6.045v-6.036z" fill="#fff"/><path opacity=".09" d="M135.067 691.358h6.046v6.036h-6.046v-6.036z" fill="#fff"/><path opacity=".44" d="M127.122 691.358h6.045v6.036h-6.045v-6.036z" fill="#fff"/><path opacity=".51" d="M119.004 691.358h6.046v6.036h-6.046v-6.036z" fill="#fff"/><path opacity=".97" d="M110.887 691.358h6.045v6.036h-6.045v-6.036z" fill="#fff"/><path opacity=".26" d="M191.547 699.291h6.045v6.035h-6.045v-6.035z" fill="#fff"/><path opacity=".92" d="M183.602 699.291h6.045v6.035h-6.045v-6.035z" fill="#fff"/><path opacity=".33" d="M175.484 699.291h6.045v6.035h-6.045v-6.035z" fill="#fff"/><path opacity=".23" d="M167.366 699.291h6.045v6.035h-6.045v-6.035z" fill="#fff"/><path opacity=".42" d="M159.248 699.291h6.046v6.035h-6.046v-6.035z" fill="#fff"/><path opacity=".57" d="M151.303 699.291h6.045v6.035h-6.045v-6.035z" fill="#fff"/><path opacity=".73" d="M143.185 699.291h6.045v6.035h-6.045v-6.035z" fill="#fff"/><path opacity=".87" d="M135.067 699.291h6.046v6.035h-6.046v-6.035z" fill="#fff"/><path opacity=".22" d="M127.122 699.291h6.045v6.035h-6.045v-6.035z" fill="#fff"/><path opacity=".89" d="M119.004 699.291h6.046v6.035h-6.046v-6.035z" fill="#fff"/><path opacity=".73" d="M110.887 699.291h6.045v6.035h-6.045v-6.035z" fill="#fff"/><path opacity=".35" d="M191.547 707.223h6.045v6.036h-6.045v-6.036z" fill="#fff"/><path opacity=".81" d="M183.602 707.223h6.045v6.036h-6.045v-6.036z" fill="#fff"/><path opacity=".56" d="M175.484 707.223h6.045v6.036h-6.045v-6.036z" fill="#fff"/><path opacity=".81" d="M167.366 707.223h6.045v6.036h-6.045v-6.036z" fill="#fff"/><path opacity=".87" d="M159.248 707.223h6.046v6.036h-6.046v-6.036z" fill="#fff"/><path opacity=".39" d="M151.303 707.223h6.045v6.036h-6.045v-6.036z" fill="#fff"/><path opacity=".31" d="M143.185 707.223h6.045v6.036h-6.045v-6.036z" fill="#fff"/><path opacity=".98" d="M135.067 707.223h6.046v6.036h-6.046v-6.036z" fill="#fff"/><path opacity=".17" d="M127.122 707.223h6.045v6.036h-6.045v-6.036z" fill="#fff"/><path opacity=".06" d="M119.004 707.223h6.046v6.036h-6.046v-6.036z" fill="#fff"/><path opacity=".57" d="M110.887 707.223h6.045v6.036h-6.045v-6.036z" fill="#fff"/><path opacity=".67" d="M191.547 715.156h6.045v6.035h-6.045v-6.035z" fill="#fff"/><path opacity=".83" d="M183.602 715.156h6.045v6.035h-6.045v-6.035z" fill="#fff"/><path opacity=".99" d="M175.484 715.156h6.045v6.035h-6.045v-6.035z" fill="#fff"/><path opacity=".62" d="M167.366 715.156h6.045v6.035h-6.045v-6.035z" fill="#fff"/><path opacity=".87" d="M159.248 715.156h6.046v6.035h-6.046v-6.035z" fill="#fff"/><path opacity=".14" d="M151.303 715.156h6.045v6.035h-6.045v-6.035z" fill="#fff"/><path opacity=".12" d="M143.185 715.156h6.045v6.035h-6.045v-6.035z" fill="#fff"/><path opacity=".11" d="M135.067 715.156h6.046v6.035h-6.046v-6.035z" fill="#fff"/><path opacity=".39" d="M127.122 715.156h6.045v6.035h-6.045v-6.035z" fill="#fff"/><path opacity=".58" d="M119.004 715.156h6.046v6.035h-6.046v-6.035z" fill="#fff"/><path opacity=".54" d="M110.887 715.156h6.045v6.035h-6.045v-6.035z" fill="#fff"/><path opacity=".99" d="M191.547 723.088h6.045v6.036h-6.045v-6.036z" fill="#fff"/><path opacity=".28" d="M183.602 723.088h6.045v6.036h-6.045v-6.036z" fill="#fff"/><path opacity=".78" d="M175.484 723.088h6.045v6.036h-6.045v-6.036z" fill="#fff"/><path opacity=".65" d="M167.366 723.088h6.045v6.036h-6.045v-6.036z" fill="#fff"/><path opacity=".32" d="M159.248 723.088h6.046v6.036h-6.046v-6.036z" fill="#fff"/><path opacity=".55" d="M151.303 723.088h6.045v6.036h-6.045v-6.036z" fill="#fff"/><path opacity=".4" d="M143.185 723.088h6.045v6.036h-6.045v-6.036z" fill="#fff"/><path opacity=".22" d="M135.067 723.088h6.046v6.036h-6.046v-6.036z" fill="#fff"/><path opacity=".87" d="M127.122 723.088h6.045v6.036h-6.045v-6.036z" fill="#fff"/><path opacity=".02" d="M119.004 723.088h6.046v6.036h-6.046v-6.036z" fill="#fff"/><path opacity=".39" d="M110.887 723.088h6.045v6.036h-6.045v-6.036z" fill="#fff"/><path opacity=".89" d="M191.547 731.021h6.045v6.035h-6.045v-6.035z" fill="#fff"/><path opacity=".97" d="M183.602 731.021h6.045v6.035h-6.045v-6.035z" fill="#fff"/><path opacity=".79" d="M175.484 731.021h6.045v6.035h-6.045v-6.035z" fill="#fff"/><path opacity=".41" d="M167.366 731.021h6.045v6.035h-6.045v-6.035z" fill="#fff"/><path opacity=".13" d="M159.248 731.021h6.046v6.035h-6.046v-6.035z" fill="#fff"/><path opacity=".9" d="M151.303 731.021h6.045v6.035h-6.045v-6.035z" fill="#fff"/><path opacity=".98" d="M143.185 731.021h6.045v6.035h-6.045v-6.035z" fill="#fff"/><path opacity=".67" d="M135.067 731.021h6.046v6.035h-6.046v-6.035z" fill="#fff"/><path opacity=".65" d="M127.122 731.021h6.045v6.035h-6.045v-6.035z" fill="#fff"/><path opacity=".89" d="M119.004 731.021h6.046v6.035h-6.046v-6.035z" fill="#fff"/><path opacity=".98" d="M110.887 731.021h6.045v6.035h-6.045v-6.035z" fill="#fff"/><path opacity=".29" d="M191.547 738.953h6.045v6.036h-6.045v-6.036z" fill="#fff"/><path opacity=".74" d="M183.602 738.953h6.045v6.036h-6.045v-6.036z" fill="#fff"/><path opacity=".64" d="M175.484 738.953h6.045v6.036h-6.045v-6.036z" fill="#fff"/><path opacity=".65" d="M167.366 738.953h6.045v6.036h-6.045v-6.036z" fill="#fff"/><path opacity=".07" d="M159.248 738.953h6.046v6.036h-6.046v-6.036z" fill="#fff"/><path opacity=".16" d="M151.303 738.953h6.045v6.036h-6.045v-6.036z" fill="#fff"/><path opacity=".84" d="M143.185 738.953h6.045v6.036h-6.045v-6.036z" fill="#fff"/><path opacity=".88" d="M135.067 738.953h6.046v6.036h-6.046v-6.036z" fill="#fff"/><path opacity=".57" d="M127.122 738.953h6.045v6.036h-6.045v-6.036z" fill="#fff"/><path opacity=".31" d="M119.004 738.953h6.046v6.036h-6.046v-6.036z" fill="#fff"/><path opacity=".03" d="M110.887 738.953h6.045v6.036h-6.045v-6.036z" fill="#fff"/><path opacity=".3" d="M191.547 746.885h6.045v6.036h-6.045v-6.036z" fill="#fff"/><path opacity=".59" d="M183.602 746.885h6.045v6.036h-6.045v-6.036z" fill="#fff"/><path opacity=".93" d="M175.484 746.885h6.045v6.036h-6.045v-6.036z" fill="#fff"/><path opacity=".06" d="M167.366 746.885h6.045v6.036h-6.045v-6.036z" fill="#fff"/><path opacity=".74" d="M159.248 746.885h6.046v6.036h-6.046v-6.036z" fill="#fff"/><path opacity=".22" d="M151.303 746.885h6.045v6.036h-6.045v-6.036z" fill="#fff"/><path opacity=".51" d="M143.185 746.885h6.045v6.036h-6.045v-6.036z" fill="#fff"/><path opacity=".7" d="M135.067 746.885h6.046v6.036h-6.046v-6.036z" fill="#fff"/><path opacity=".47" d="M127.122 746.885h6.045v6.036h-6.045v-6.036z" fill="#fff"/><path opacity=".08" d="M119.004 746.885h6.046v6.036h-6.046v-6.036z" fill="#fff"/><path opacity=".93" d="M110.887 746.885h6.045v6.036h-6.045v-6.036z" fill="#fff"/><path opacity=".81" d="M191.547 754.818h6.045v6.036h-6.045v-6.036z" fill="#fff"/><path opacity=".9" d="M183.602 754.818h6.045v6.036h-6.045v-6.036z" fill="#fff"/><path opacity=".55" d="M175.484 754.818h6.045v6.036h-6.045v-6.036z" fill="#fff"/><path opacity=".14" d="M167.366 754.818h6.045v6.036h-6.045v-6.036z" fill="#fff"/><path opacity=".66" d="M159.248 754.818h6.046v6.036h-6.046v-6.036z" fill="#fff"/><path opacity=".92" d="M151.303 754.818h6.045v6.036h-6.045v-6.036z" fill="#fff"/><path opacity=".4" d="M143.185 754.818h6.045v6.036h-6.045v-6.036z" fill="#fff"/><path opacity=".6" d="M135.067 754.818h6.046v6.036h-6.046v-6.036z" fill="#fff"/><path opacity=".99" d="M127.122 754.818h6.045v6.036h-6.045v-6.036z" fill="#fff"/><path opacity=".68" d="M119.004 754.818h6.046v6.036h-6.046v-6.036z" fill="#fff"/><path opacity=".01" d="M110.887 754.818h6.045v6.036h-6.045v-6.036z" fill="#fff"/><path opacity=".82" d="M191.547 762.75h6.045v6.036h-6.045v-6.036z" fill="#fff"/><path opacity=".92" d="M183.602 762.75h6.045v6.036h-6.045v-6.036z" fill="#fff"/><path opacity=".29" d="M175.484 762.75h6.045v6.036h-6.045v-6.036z" fill="#fff"/><path opacity=".73" d="M167.366 762.75h6.045v6.036h-6.045v-6.036z" fill="#fff"/><path opacity=".42" d="M159.248 762.75h6.046v6.036h-6.046v-6.036z" fill="#fff"/><path opacity=".06" d="M151.303 762.75h6.045v6.036h-6.045v-6.036z" fill="#fff"/><path opacity=".7" d="M143.185 762.75h6.045v6.036h-6.045v-6.036z" fill="#fff"/><path opacity=".97" d="M135.067 762.75h6.046v6.036h-6.046v-6.036z" fill="#fff"/><path opacity=".51" d="M127.122 762.75h6.045v6.036h-6.045v-6.036z" fill="#fff"/><path opacity=".69" d="M119.004 762.75h6.046v6.036h-6.046v-6.036z" fill="#fff"/><path opacity=".49" d="M110.887 762.75h6.045v6.036h-6.045v-6.036z" fill="#fff"/><path opacity=".45" d="M191.547 770.683h6.045v6.035h-6.045v-6.035z" fill="#fff"/><path opacity=".46" d="M183.602 770.683h6.045v6.035h-6.045v-6.035z" fill="#fff"/><path opacity=".04" d="M175.484 770.683h6.045v6.035h-6.045v-6.035z" fill="#fff"/><path opacity=".56" d="M167.366 770.683h6.045v6.035h-6.045v-6.035z" fill="#fff"/><path opacity=".4" d="M159.248 770.683h6.046v6.035h-6.046v-6.035z" fill="#fff"/><path opacity=".59" d="M151.303 770.683h6.045v6.035h-6.045v-6.035z" fill="#fff"/><path opacity=".82" d="M143.185 770.683h6.045v6.035h-6.045v-6.035z" fill="#fff"/><path opacity=".99" d="M135.067 770.683h6.046v6.035h-6.046v-6.035z" fill="#fff"/><path opacity=".1" d="M127.122 770.683h6.045v6.035h-6.045v-6.035z" fill="#fff"/><path opacity=".87" d="M119.004 770.683h6.046v6.035h-6.046v-6.035z" fill="#fff"/><path d="M110.887 770.683h6.045v6.035h-6.045v-6.035z" fill="#fff"/><path d="M293.625 596.859h56.997v178.308h-56.997V596.859z" fill="#333"/><path d="M324.714 587.892h25.908v10.002h-25.908v-10.002zm10.882-5.863h15.026v5.863h-15.026v-5.863z" fill="#333"/><path opacity=".25" d="M317.633 609.448h9.327v9.312h-9.327v-9.312z" fill="#fff"/><path opacity=".15" d="M317.633 632.383h9.327v9.312h-9.327v-9.312z" fill="#fff"/><path opacity=".19" d="M317.633 678.08h9.327v9.312h-9.327v-9.312z" fill="#fff"/><path opacity=".17" d="M317.633 700.843h9.327v9.312h-9.327v-9.312z" fill="#fff"/><path opacity=".22" d="M317.633 723.606h9.327v9.312h-9.327v-9.312z" fill="#fff"/><path d="M317.633 746.541h9.327v9.312h-9.327v-9.312z" fill="#fff"/><path d="M335.941 696.187h53.371v15.692h-53.371v-15.692z" fill="#333"/><path d="M309.342 696.187h26.599v15.692h-26.599v-15.692z" fill="#4D4D4D"/><path d="M389.312 696.187l-16.582-7.932-36.789 7.932h53.371z" fill="#333"/><path d="M372.73 688.255l-36.789 7.932h-26.599l63.388-7.932z" fill="#4D4D4D"/><path d="M323.505 707.223h78.07v71.392h-78.07v-71.392z" fill="#333"/><path d="M297.597 707.223h25.908v71.392h-25.908v-71.392z" fill="#4D4D4D"/><path opacity=".81" d="M303.642 712.224h13.991v5.174h-13.991v-5.174z" fill="#fff"/><path opacity=".76" d="M303.642 721.709h13.991v5.173h-13.991v-5.173z" fill="#fff"/><path opacity=".32" d="M303.642 731.193h13.991v5.174h-13.991v-5.174z" fill="#fff"/><path opacity=".49" d="M303.642 740.85h13.991v5.173h-13.991v-5.173z" fill="#fff"/><path opacity=".99" d="M303.642 759.819h13.991v5.173h-13.991v-5.173z" fill="#fff"/><path opacity=".1" d="M375.148 712.224h13.991v5.174h-13.991v-5.174z" fill="#fff"/><path opacity=".04" d="M355.631 712.224h13.991v5.174h-13.991v-5.174z" fill="#fff"/><path opacity=".07" d="M335.941 712.224h13.99v5.174h-13.99v-5.174z" fill="#fff"/><path opacity=".06" d="M375.148 721.709h13.991v5.173h-13.991v-5.173z" fill="#fff"/><path opacity=".44" d="M355.631 721.709h13.991v5.173h-13.991v-5.173z" fill="#fff"/><path opacity=".24" d="M335.941 721.709h13.99v5.173h-13.99v-5.173z" fill="#fff"/><path opacity=".55" d="M375.148 731.193h13.991v5.174h-13.991v-5.174z" fill="#fff"/><path opacity=".02" d="M355.631 731.193h13.991v5.174h-13.991v-5.174z" fill="#fff"/><path opacity=".14" d="M335.941 731.193h13.99v5.174h-13.99v-5.174z" fill="#fff"/><path opacity=".43" d="M375.148 740.85h13.991v5.173h-13.991v-5.173z" fill="#fff"/><path opacity=".41" d="M355.631 740.85h13.991v5.173h-13.991v-5.173z" fill="#fff"/><path opacity=".46" d="M335.941 740.85h13.99v5.173h-13.99v-5.173z" fill="#fff"/><path opacity=".45" d="M375.148 750.335h13.991v5.173h-13.991v-5.173z" fill="#fff"/><path opacity=".33" d="M355.631 750.335h13.991v5.173h-13.991v-5.173z" fill="#fff"/><path opacity=".05" d="M335.941 750.335h13.99v5.173h-13.99v-5.173z" fill="#fff"/><path opacity=".27" d="M375.148 759.819h13.991v5.174h-13.991v-5.174z" fill="#fff"/><path opacity=".15" d="M355.631 759.819h13.991v5.174h-13.991v-5.174z" fill="#fff"/><path opacity=".7" d="M335.941 759.819h13.99v5.174h-13.99v-5.174z" fill="#fff"/><path d="M703.317 635.832h48.362v148.819h-48.362V635.832z" fill="#333"/><path d="M648.219 635.832h54.925v148.819h-54.925V635.832zm55.098 12.588h48.362v2.587h-48.362v-2.587z" fill="#4D4D4D"/><path d="M648.219 648.42h54.925v2.587h-54.925v-2.587z" fill="#333"/><path opacity=".32" d="M728.361 653.939h5.182v5.173h-5.182v-5.173z" fill="#fff"/><path opacity=".25" d="M721.28 653.939h5.182v5.173h-5.182v-5.173z" fill="#fff"/><path opacity=".12" d="M707.117 653.939h5.181v5.173h-5.181v-5.173z" fill="#fff"/><path opacity=".22" d="M728.361 661.009h5.182v5.173h-5.182v-5.173z" fill="#fff"/><path opacity=".47" d="M721.28 661.009h5.182v5.173h-5.182v-5.173z" fill="#fff"/><path opacity=".22" d="M714.198 661.009h5.182v5.173h-5.182v-5.173z" fill="#fff"/><path opacity=".32" d="M707.117 661.009h5.181v5.173h-5.181v-5.173z" fill="#fff"/><path opacity=".18" d="M728.361 668.079h5.182v5.173h-5.182v-5.173z" fill="#fff"/><path opacity=".28" d="M721.28 668.079h5.182v5.173h-5.182v-5.173z" fill="#fff"/><path opacity=".2" d="M707.117 668.079h5.181v5.173h-5.181v-5.173z" fill="#fff"/><path opacity=".33" d="M728.361 675.149h5.182v5.174h-5.182v-5.174z" fill="#fff"/><path opacity=".05" d="M721.28 675.149h5.182v5.174h-5.182v-5.174z" fill="#fff"/><path opacity=".08" d="M714.198 675.149h5.182v5.174h-5.182v-5.174zm7.082 7.07h5.182v5.174h-5.182v-5.174z" fill="#fff"/><path opacity=".02" d="M714.198 682.219h5.182v5.174h-5.182v-5.174z" fill="#fff"/><path opacity=".05" d="M728.361 689.29h5.182v5.173h-5.182v-5.173z" fill="#fff"/><path opacity=".2" d="M721.28 689.29h5.182v5.173h-5.182v-5.173z" fill="#fff"/><path opacity=".23" d="M714.198 689.29h5.182v5.173h-5.182v-5.173z" fill="#fff"/><path opacity=".14" d="M728.361 696.36h5.182v5.173h-5.182v-5.173z" fill="#fff"/><path opacity=".24" d="M714.198 696.36h5.182v5.173h-5.182v-5.173z" fill="#fff"/><path opacity=".23" d="M728.361 703.43h5.182v5.173h-5.182v-5.173z" fill="#fff"/><path opacity=".02" d="M721.28 703.43h5.182v5.173h-5.182v-5.173z" fill="#fff"/><path opacity=".04" d="M714.198 703.43h5.182v5.173h-5.182v-5.173z" fill="#fff"/><path opacity=".3" d="M707.117 703.43h5.181v5.173h-5.181v-5.173z" fill="#fff"/><path opacity=".4" d="M707.117 710.328h5.181v5.173h-5.181v-5.173z" fill="#fff"/><path opacity=".12" d="M728.361 717.398h5.182v5.174h-5.182v-5.174z" fill="#fff"/><path opacity=".19" d="M714.198 717.398h5.182v5.174h-5.182v-5.174z" fill="#fff"/><path opacity=".43" d="M707.117 717.398h5.181v5.174h-5.181v-5.174z" fill="#fff"/><path opacity=".42" d="M721.28 724.468h5.182v5.174h-5.182v-5.174z" fill="#fff"/><path opacity=".31" d="M707.117 724.468h5.181v5.174h-5.181v-5.174zm14.163 7.071h5.182v5.173h-5.182v-5.173z" fill="#fff"/><path opacity=".33" d="M707.117 731.539h5.181v5.173h-5.181v-5.173z" fill="#fff"/><path opacity=".17" d="M721.28 738.609h5.182v5.173h-5.182v-5.173z" fill="#fff"/><path opacity=".01" d="M714.198 738.609h5.182v5.173h-5.182v-5.173z" fill="#fff"/><path opacity=".48" d="M707.117 738.609h5.181v5.173h-5.181v-5.173z" fill="#fff"/><path opacity=".28" d="M728.361 745.679h5.182v5.173h-5.182v-5.173z" fill="#fff"/><path opacity=".02" d="M721.28 745.679h5.182v5.173h-5.182v-5.173z" fill="#fff"/><path opacity=".17" d="M714.198 745.679h5.182v5.173h-5.182v-5.173z" fill="#fff"/><path opacity=".42" d="M707.117 745.679h5.181v5.173h-5.181v-5.173z" fill="#fff"/><path opacity=".11" d="M728.361 752.749h5.182v5.174h-5.182v-5.174z" fill="#fff"/><path opacity=".02" d="M721.28 752.749h5.182v5.174h-5.182v-5.174z" fill="#fff"/><path opacity=".3" d="M707.117 752.749h5.181v5.174h-5.181v-5.174z" fill="#fff"/><path opacity=".19" d="M728.361 759.82h5.182v5.173h-5.182v-5.173z" fill="#fff"/><path opacity=".05" d="M721.28 759.82h5.182v5.173h-5.182v-5.173z" fill="#fff"/><path opacity=".2" d="M707.117 759.82h5.181v5.173h-5.181v-5.173z" fill="#fff"/><path opacity=".27" d="M721.28 766.89h5.182v5.173h-5.182v-5.173z" fill="#fff"/><path opacity=".13" d="M714.198 766.89h5.182v5.173h-5.182v-5.173z" fill="#fff"/><path opacity=".46" d="M728.361 773.96h5.182v5.173h-5.182v-5.173z" fill="#fff"/><path opacity=".12" d="M721.28 773.96h5.182v5.173h-5.182v-5.173z" fill="#fff"/><path opacity=".04" d="M714.198 773.96h5.182v5.173h-5.182v-5.173z" fill="#fff"/><path opacity=".3" d="M707.117 773.96h5.181v5.173h-5.181v-5.173z" fill="#fff"/><path opacity=".08" d="M714.198 653.939h5.182v5.173h-5.182v-5.173zm0 14.14h5.182v5.173h-5.182v-5.173z" fill="#fff"/><path opacity=".01" d="M707.117 675.149h5.181v5.174h-5.181v-5.174z" fill="#fff"/><path opacity=".15" d="M728.361 682.219h5.182v5.174h-5.182v-5.174z" fill="#fff"/><path opacity=".12" d="M707.117 682.219h5.181v5.174h-5.181v-5.174z" fill="#fff"/><path opacity=".13" d="M721.28 696.36h5.182v5.173h-5.182v-5.173z" fill="#fff"/><path opacity=".07" d="M707.117 696.36h5.181v5.173h-5.181v-5.173z" fill="#fff"/><path opacity=".02" d="M728.361 710.328h5.182v5.173h-5.182v-5.173zm-7.081 0h5.182v5.173h-5.182v-5.173z" fill="#fff"/><path opacity=".14" d="M714.198 710.328h5.182v5.173h-5.182v-5.173z" fill="#fff"/><path opacity=".09" d="M728.361 724.468h5.182v5.174h-5.182v-5.174z" fill="#fff"/><path opacity=".02" d="M714.198 724.468h5.182v5.174h-5.182v-5.174z" fill="#fff"/><path opacity=".19" d="M728.361 731.539h5.182v5.173h-5.182v-5.173z" fill="#fff"/><path opacity=".06" d="M714.198 731.539h5.182v5.173h-5.182v-5.173z" fill="#fff"/><path opacity=".16" d="M728.361 738.609h5.182v5.173h-5.182v-5.173z" fill="#fff"/><path opacity=".04" d="M714.198 752.749h5.182v5.174h-5.182v-5.174zm0 7.071h5.182v5.173h-5.182v-5.173z" fill="#fff"/><path opacity=".18" d="M707.117 766.89h5.181v5.173h-5.181v-5.173z" fill="#fff"/><path opacity=".7" d="M692.781 651.007h5.354v127.091h-5.354V651.007zm-9.154 0h5.354v127.091h-5.354V651.007zm-9.327 0h5.354v127.091H674.3V651.007zm-9.327 0h5.354v127.091h-5.354V651.007zm-9.327 0H661v127.091h-5.354V651.007z" fill="#E6E6E6"/><path d="M620.584 778.099h107.432l-107.432-93.465v93.465z" fill="#333"/><path d="M629.738 761.544H666.7v20.693h-36.962v-20.693z" fill="#4D4D4D"/><path d="M632.502 756.716h31.435v9.657h-31.435v-9.657z" fill="#4D4D4D"/><path d="M636.129 759.647h24.354l-8.464-14.14h-7.427l-8.463 14.14z" fill="#4D4D4D"/><path d="M639.583 765.683h17.272v12.588h-17.272v-12.588z" fill="#fff"/><path d="M637.511 770.684h21.417v2.586h-21.417v-2.586z" fill="#4D4D4D"/><path d="M464.79 795.515c-.518 13.451 9.845 25.005 23.49 25.522 13.472.517 25.045-10.002 25.563-23.452.518-13.451-9.845-25.005-23.49-25.522-13.472-.517-24.872 10.002-25.563 23.452z" fill="#333"/><path d="M468.935 788.79c-.345 7.76 5.7 14.313 13.473 14.658 7.772.345 14.335-5.691 14.681-13.451.345-7.76-5.7-14.313-13.472-14.658-7.773-.345-14.336 5.691-14.682 13.451z" fill="#4D4D4D"/><path d="M711.435 770.166c0 3.277 2.763 6.036 6.045 6.036s6.045-2.759 6.045-6.036c0-3.276-2.763-6.035-6.045-6.035s-6.045 2.586-6.045 6.035z" fill="#333"/><path d="M709.362 776.202a8.102 8.102 0 008.118 8.105 8.102 8.102 0 008.118-8.105 8.102 8.102 0 00-8.118-8.105 8.102 8.102 0 00-8.118 8.105z" fill="#333"/><path d="M713.507 764.993c0 2.242 1.728 4.139 3.973 4.139s3.973-1.897 3.973-4.139-1.728-4.139-3.973-4.139-3.973 1.897-3.973 4.139z" fill="#333"/><path d="M712.298 770.166a3.462 3.462 0 003.455 3.449c1.9 0 3.454-1.552 3.454-3.449a3.461 3.461 0 00-3.454-3.449 3.462 3.462 0 00-3.455 3.449z" fill="#4D4D4D"/><path d="M714.026 765.51c0 1.38 1.209 2.587 2.59 2.587 1.382 0 2.591-1.207 2.591-2.587 0-1.379-1.209-2.587-2.591-2.587-1.381-.172-2.59 1.035-2.59 2.587z" fill="#4D4D4D"/><path d="M596.23 782.754c0 4.312 3.627 7.933 7.945 7.933 4.318 0 7.946-3.621 7.946-7.933a7.918 7.918 0 00-7.946-7.932c-4.318 0-7.945 3.621-7.945 7.932z" fill="#333"/><path d="M598.994 776.029c0 2.932 2.245 5.346 5.181 5.346 2.937 0 5.182-2.414 5.182-5.346 0-2.931-2.245-5.346-5.182-5.346-2.763 0-5.181 2.415-5.181 5.346z" fill="#333"/><path d="M599.685 776.546a3.461 3.461 0 003.454 3.449c1.9 0 3.455-1.552 3.455-3.449a3.462 3.462 0 00-3.455-3.449 3.461 3.461 0 00-3.454 3.449z" fill="#4D4D4D"/><path d="M606.939 788.618c.864 8.277 8.291 14.14 16.408 13.278 8.291-.862 14.164-8.277 13.3-16.382-.864-8.278-8.291-14.141-16.408-13.278-8.118.862-14.164 8.104-13.3 16.382z" fill="#333"/><path d="M610.739 775.34c.518 5.518 5.354 9.657 10.881 9.139 5.355-.517 9.327-5.518 8.809-11.036-.518-5.518-5.354-9.657-10.881-9.14-5.527.518-9.327 5.518-8.809 11.037z" fill="#333"/><path d="M612.121 776.374c.345 3.622 3.627 6.208 7.081 5.863 3.627-.345 6.218-3.621 5.873-7.07-.346-3.621-3.627-6.208-7.082-5.863-3.627.345-6.218 3.621-5.872 7.07z" fill="#4D4D4D"/><path d="M528.697 781.375c0 7.588 6.045 13.623 13.645 13.623s13.645-6.035 13.645-13.623c0-7.588-6.045-13.623-13.645-13.623-7.427 0-13.645 6.035-13.645 13.623z" fill="#333"/><path d="M533.533 769.649c0 5.173 3.973 9.312 8.981 9.312 5.009 0 8.982-4.139 8.982-9.312 0-5.174-3.973-9.312-8.982-9.312-5.008.172-8.981 4.311-8.981 9.312z" fill="#333"/><path d="M530.769 781.375a7.918 7.918 0 007.946 7.932c4.318 0 7.945-3.448 7.945-7.932a7.918 7.918 0 00-7.945-7.932c-4.318.172-7.946 3.621-7.946 7.932z" fill="#4D4D4D"/><path d="M534.742 770.856c0 3.276 2.591 6.035 6.045 6.035 3.282 0 6.045-2.586 6.045-6.035 0-3.277-2.59-5.863-6.045-5.863-3.454-.173-6.045 2.586-6.045 5.863z" fill="#4D4D4D"/><path d="M558.923 792.756c0 9.657 7.945 17.589 17.617 17.589 9.673 0 17.618-7.932 17.618-17.589 0-9.657-7.945-17.589-17.618-17.589-9.672 0-17.617 7.76-17.617 17.589z" fill="#333"/><path d="M564.968 777.581c0 6.553 5.182 11.899 11.572 11.899 6.391 0 11.573-5.346 11.573-11.899 0-6.553-5.182-11.899-11.573-11.899-6.39 0-11.572 5.346-11.572 11.899z" fill="#333"/><path d="M566.523 779.133c0 4.311 3.454 7.588 7.772 7.588s7.773-3.449 7.773-7.588a7.734 7.734 0 00-7.773-7.76 7.734 7.734 0 00-7.772 7.76z" fill="#4D4D4D"/><path d="M516.261 779.65c0 2.07 1.554 3.622 3.454 3.622 1.9 0 3.455-1.552 3.455-3.622 0-2.069-1.555-3.621-3.455-3.621-1.9 0-3.454 1.552-3.454 3.621zm-74.27-4.31c0 6.725 5.355 12.071 12.091 12.071 6.736 0 12.09-5.346 12.09-12.071 0-6.726-5.354-12.072-12.09-12.072s-12.091 5.346-12.091 12.072z" fill="#333"/><path d="M437.846 787.411c0 8.967 7.254 16.21 16.236 16.21 8.981 0 16.235-7.243 16.235-16.21s-7.254-16.21-16.235-16.21c-8.982 0-16.236 7.243-16.236 16.21z" fill="#333"/><path d="M446.136 764.993c0 4.484 3.628 8.277 7.946 8.277s7.945-3.621 7.945-8.277c0-4.484-3.627-8.277-7.945-8.277-4.318 0-7.946 3.793-7.946 8.277z" fill="#333"/><path d="M443.891 775.34c0 3.793 3.109 6.897 6.909 6.897s6.909-3.104 6.909-6.897c0-3.794-3.109-6.898-6.909-6.898s-6.909 3.104-6.909 6.898z" fill="#4D4D4D"/><path d="M447.173 766.028c0 2.931 2.418 5.345 5.354 5.345s5.354-2.414 5.354-5.345c0-2.932-2.418-5.346-5.354-5.346s-5.354 2.414-5.354 5.346z" fill="#4D4D4D"/><path d="M396.911 790.515c0 8.967 7.254 16.209 16.236 16.209 8.981 0 16.236-7.242 16.236-16.209 0-8.967-7.255-16.21-16.236-16.21-8.982.172-16.236 7.415-16.236 16.21z" fill="#333"/><path d="M402.611 776.719c0 6.036 4.836 11.037 10.536 11.037 5.873 0 10.709-4.829 10.709-11.037 0-6.035-4.836-10.864-10.709-10.864-5.872 0-10.536 4.829-10.536 10.864z" fill="#333"/><path d="M403.993 778.099c0 3.966 3.109 7.07 7.081 7.07 3.973 0 7.082-3.104 7.082-7.07s-3.109-7.07-7.082-7.07c-3.972 0-7.081 3.104-7.081 7.07z" fill="#4D4D4D"/><path d="M132.649 797.068c0 14.83 11.918 26.729 26.772 26.729s26.772-11.899 26.772-26.729c0-14.831-11.918-26.729-26.772-26.729s-26.772 12.071-26.772 26.729z" fill="#333"/><path d="M136.622 789.653c0 8.449 6.909 15.347 15.372 15.347 8.463 0 15.372-6.898 15.372-15.347 0-8.45-6.909-15.348-15.372-15.348-8.463 0-15.372 6.898-15.372 15.348z" fill="#4D4D4D"/><path d="M98.278 785.514c0 12.416 10.19 22.59 22.626 22.59 12.436 0 22.627-10.174 22.627-22.59s-10.191-22.59-22.627-22.59c-12.608 0-22.626 10.001-22.626 22.59z" fill="#333"/><path d="M101.732 779.133c0 7.243 5.873 12.934 12.954 12.934 7.255 0 12.954-5.863 12.954-12.934 0-7.07-5.872-12.933-12.954-12.933-7.081 0-12.954 5.863-12.954 12.933z" fill="#4D4D4D"/><path d="M155.966 789.135c0 12.416 10.191 22.59 22.627 22.59 12.436 0 22.626-10.174 22.626-22.59s-10.19-22.59-22.626-22.59c-12.609 0-22.627 10.001-22.627 22.59z" fill="#333"/><path d="M159.421 782.755c0 7.242 5.872 12.933 12.954 12.933 7.081 0 12.954-5.863 12.954-12.933 0-7.243-5.873-12.934-12.954-12.934-7.082 0-12.954 5.691-12.954 12.934z" fill="#4D4D4D"/><path d="M225.745 794.309c0 12.416 10.191 22.59 22.627 22.59 12.436 0 22.626-10.174 22.626-22.59s-10.19-22.59-22.626-22.59c-12.609 0-22.627 10.174-22.627 22.59z" fill="#333"/><path d="M229.2 787.928c0 7.243 5.872 12.934 12.954 12.934 7.254 0 12.954-5.863 12.954-12.934 0-7.242-5.873-12.933-12.954-12.933-7.082 0-12.954 5.863-12.954 12.933z" fill="#4D4D4D"/><path d="M253.035 790.515c0 12.416 10.191 22.59 22.627 22.59 12.436 0 22.626-10.174 22.626-22.59s-10.19-22.59-22.626-22.59c-12.436 0-22.627 10.001-22.627 22.59z" fill="#333"/><path d="M256.49 784.134c0 7.243 5.872 12.934 12.954 12.934 7.254 0 12.954-5.863 12.954-12.934 0-7.242-5.873-12.933-12.954-12.933-7.082 0-12.954 5.691-12.954 12.933z" fill="#4D4D4D"/><path d="M235.418 786.893c0 7.243 5.872 12.933 12.954 12.933 7.254 0 12.954-5.863 12.954-12.933 0-7.243-5.873-12.933-12.954-12.933-7.254 0-12.954 5.863-12.954 12.933z" fill="#4D4D4D"/><path d="M331.968 787.928c0 8.105 6.564 14.83 14.854 14.83 8.118 0 14.854-6.553 14.854-14.83 0-8.105-6.563-14.831-14.854-14.831-8.29.173-14.854 6.726-14.854 14.831z" fill="#333"/><path d="M334.214 783.789c0 4.656 3.8 8.45 8.463 8.45 4.663 0 8.463-3.794 8.463-8.45 0-4.656-3.8-8.45-8.463-8.45-4.663 0-8.463 3.794-8.463 8.45z" fill="#4D4D4D"/><path d="M720.071 776.202c0 6.897 5.527 12.416 12.436 12.416s12.436-5.519 12.436-12.416c0-6.898-5.527-12.416-12.436-12.416-6.736-.173-12.436 5.518-12.436 12.416z" fill="#333"/><path d="M715.926 788.618c0 9.312 7.427 16.727 16.754 16.727 9.326 0 16.753-7.415 16.753-16.727 0-9.312-7.427-16.727-16.753-16.727-9.327 0-16.754 7.415-16.754 16.727z" fill="#333"/><path d="M724.389 765.51c0 4.656 3.627 8.45 8.291 8.45 4.49 0 8.29-3.794 8.29-8.45 0-4.656-3.627-8.45-8.29-8.45-4.664 0-8.291 3.794-8.291 8.45z" fill="#333"/><path d="M721.971 776.201c0 3.967 3.282 7.243 7.254 7.243 3.973 0 7.254-3.276 7.254-7.243 0-3.966-3.281-7.242-7.254-7.242-3.972 0-7.254 3.276-7.254 7.242z" fill="#4D4D4D"/><path d="M725.425 766.545c0 2.931 2.418 5.518 5.527 5.518 2.937 0 5.527-2.414 5.527-5.518 0-2.932-2.418-5.518-5.527-5.518-2.936 0-5.527 2.414-5.527 5.518z" fill="#4D4D4D"/><path d="M661.173 781.03c0 5.519 4.491 10.002 10.018 10.002 5.527 0 10.018-4.483 10.018-10.002 0-5.518-4.491-10.001-10.018-10.001-5.527 0-10.018 4.483-10.018 10.001z" fill="#333"/><path d="M664.628 772.408c0 3.794 2.936 6.898 6.563 6.898s6.564-3.104 6.564-6.898c0-3.794-2.937-6.898-6.564-6.898-3.627.173-6.563 3.104-6.563 6.898z" fill="#333"/><path d="M662.728 781.03c0 3.277 2.591 5.863 5.872 5.863 3.282 0 5.873-2.586 5.873-5.863 0-3.104-2.591-5.69-5.873-5.69-3.281-.173-5.872 2.414-5.872 5.69z" fill="#4D4D4D"/><path d="M665.491 773.27c0 2.415 1.9 4.311 4.318 4.311 2.418 0 4.318-1.896 4.318-4.311 0-2.414-1.9-4.311-4.318-4.311-2.418-.172-4.318 1.897-4.318 4.311z" fill="#4D4D4D"/></g><defs><clipPath id="clip0"><path fill="#fff" transform="matrix(-1 0 0 1 1127 .322)" d="M0 0h1127v776H0z"/></clipPath></defs></svg>